#define 01_width 35
#define 01_height 35
static unsigned char 01_bits[] = {
   0x00, 0x00, 0x00, 0x00, 0x00, 0x00, 0x00, 0x02, 0x00, 0x00, 0x00, 0xc0,
   0x7f, 0x00, 0x00, 0x00, 0x58, 0xff, 0x01, 0x00, 0x00, 0x34, 0xf0, 0x07,
   0x00, 0x00, 0x04, 0x96, 0x0f, 0x00, 0x00, 0xe1, 0x7f, 0x1e, 0x00, 0x00,
   0xe9, 0xff, 0x3c, 0x00, 0x80, 0xd8, 0xfd, 0x73, 0x00, 0x00, 0xb4, 0xff,
   0x77, 0x00, 0x20, 0x4a, 0xf7, 0xe7, 0x00, 0x00, 0xda, 0xff, 0xef, 0x00,
   0x20, 0xd5, 0xfd, 0xdf, 0x01, 0x00, 0xd9, 0xff, 0xdf, 0x01, 0x10, 0xd6,
   0xfa, 0x9f, 0x01, 0x40, 0x94, 0xff, 0x9f, 0x01, 0x10, 0x69, 0xfe, 0x9f,
   0x01, 0x00, 0xd4, 0xf0, 0x1f, 0x01, 0x10, 0x91, 0xed, 0x9f, 0x01, 0x00,
   0x24, 0xa9, 0x9f, 0x00, 0x10, 0x51, 0x4d, 0x95, 0x00, 0x20, 0x00, 0xa9,
   0x55, 0x00, 0x00, 0xc4, 0x94, 0x8a, 0x00, 0x00, 0x00, 0xa5, 0x2a, 0x00,
   0x40, 0x10, 0x44, 0x02, 0x00, 0x80, 0x80, 0x90, 0x14, 0x00, 0x00, 0x01,
   0x00, 0x0a, 0x00, 0x00, 0x12, 0x52, 0x00, 0x00, 0x00, 0x84, 0x00, 0x01,
   0x00, 0x00, 0x10, 0x40, 0x00, 0x00, 0x00, 0x40, 0x15, 0x00, 0x00, 0x00,
   0x00, 0x00, 0x00, 0x00, 0x00, 0x00, 0x00, 0x00, 0x00, 0x00, 0x00, 0x00,
   0x00, 0x00, 0x00, 0x00, 0x00, 0x00, 0x00 };
