#define 02_width 35
#define 02_height 35
static unsigned char 02_bits[] = {
   0x00, 0x00, 0x00, 0x00, 0x00, 0x00, 0x00, 0x00, 0x00, 0x00, 0x00, 0x00,
   0xff, 0x00, 0x00, 0x00, 0xa0, 0xfa, 0x03, 0x00, 0x00, 0x10, 0xe0, 0x0f,
   0x00, 0x00, 0x00, 0x4a, 0x1f, 0x00, 0x00, 0xc0, 0x7e, 0x3e, 0x00, 0x00,
   0x91, 0xfd, 0x7c, 0x00, 0x00, 0xa0, 0xfe, 0xf3, 0x00, 0x00, 0x24, 0xfd,
   0xf7, 0x00, 0x00, 0x50, 0xf5, 0xef, 0x01, 0x00, 0x80, 0xfd, 0xcf, 0x01,
   0x00, 0x52, 0xd7, 0xdf, 0x01, 0x20, 0x44, 0xfd, 0xdf, 0x01, 0x00, 0xd0,
   0xfa, 0x9f, 0x03, 0x00, 0x90, 0xf6, 0xbf, 0x03, 0x00, 0x20, 0xdd, 0xbf,
   0x03, 0x50, 0x44, 0xf0, 0xbf, 0x03, 0x00, 0x90, 0xaa, 0x9f, 0x02, 0x00,
   0x00, 0x54, 0x9f, 0x01, 0x50, 0xa0, 0xa8, 0x9a, 0x02, 0x00, 0x40, 0xa2,
   0x96, 0x00, 0x00, 0x40, 0x84, 0xd5, 0x00, 0xa0, 0x80, 0x29, 0x4a, 0x00,
   0x00, 0x01, 0x40, 0x21, 0x00, 0x00, 0x00, 0x08, 0x25, 0x00, 0x40, 0x05,
   0x20, 0x08, 0x00, 0x80, 0x00, 0x80, 0x00, 0x00, 0x00, 0x04, 0x00, 0x02,
   0x00, 0x00, 0x20, 0x04, 0x00, 0x00, 0x00, 0x00, 0x11, 0x00, 0x00, 0x00,
   0x00, 0x00, 0x00, 0x00, 0x00, 0x00, 0x00, 0x00, 0x00, 0x00, 0x00, 0x00,
   0x00, 0x00, 0x00, 0x00, 0x00, 0x00, 0x00 };
