#define 03_width 35
#define 03_height 35
static unsigned char 03_bits[] = {
   0x00, 0x00, 0x00, 0x00, 0x00, 0x00, 0x00, 0x00, 0x00, 0x00, 0x00, 0x00,
   0x00, 0x00, 0x00, 0x00, 0x00, 0x00, 0x00, 0x00, 0x00, 0x00, 0x00, 0x05,
   0x00, 0x00, 0x00, 0x00, 0x14, 0x00, 0x00, 0x00, 0x00, 0x38, 0x00, 0x00,
   0x00, 0x00, 0x61, 0x00, 0x00, 0x00, 0x00, 0xe1, 0x00, 0x00, 0x00, 0x10,
   0x82, 0x00, 0x00, 0x00, 0x20, 0xc0, 0x01, 0x00, 0x00, 0x22, 0x8a, 0x01,
   0x00, 0x00, 0x00, 0xc0, 0x03, 0x00, 0x00, 0x02, 0x0a, 0x03, 0x00, 0x00,
   0x00, 0x90, 0x03, 0x00, 0x00, 0x02, 0x00, 0x03, 0x40, 0x00, 0x00, 0x94,
   0x02, 0xc0, 0x00, 0x00, 0x00, 0x03, 0x40, 0x00, 0x20, 0x08, 0x03, 0xc0,
   0x00, 0x40, 0x10, 0x00, 0xc0, 0x00, 0x00, 0x80, 0x02, 0xc0, 0x00, 0x00,
   0x80, 0x00, 0x80, 0x01, 0x00, 0x00, 0x00, 0x80, 0x03, 0x00, 0x00, 0x00,
   0x00, 0x03, 0x00, 0x00, 0x00, 0x00, 0x02, 0x00, 0x00, 0x00, 0x00, 0x00,
   0x00, 0x00, 0x00, 0x00, 0x00, 0x00, 0x00, 0x00, 0x00, 0x00, 0x00, 0x00,
   0x00, 0x00, 0x00, 0x00, 0x00, 0x00, 0x00, 0x00, 0x00, 0x00, 0x00, 0x00,
   0x00, 0x00, 0x00, 0x00, 0x00, 0x00, 0x00, 0x00, 0x00, 0x00, 0x00, 0x00,
   0x00, 0x00, 0x00, 0x00, 0x00, 0x00, 0x00 };
