#define 05_width 35
#define 05_height 35
static unsigned char 05_bits[] = {
   0x00, 0x00, 0x00, 0x00, 0x00, 0x00, 0x00, 0x00, 0x00, 0x00, 0x00, 0x00,
   0x00, 0x00, 0x00, 0x00, 0x00, 0x00, 0x00, 0x00, 0x00, 0x00, 0x00, 0x00,
   0x00, 0x00, 0x00, 0x80, 0x00, 0x00, 0x00, 0x00, 0x00, 0x00, 0x00, 0x00,
   0x00, 0x80, 0x03, 0x00, 0x00, 0x00, 0x00, 0x05, 0x00, 0x00, 0x00, 0x00,
   0x07, 0x00, 0x00, 0x00, 0x84, 0x07, 0x00, 0x00, 0x00, 0x05, 0x0f, 0x00,
   0x00, 0x00, 0x03, 0x0f, 0x00, 0x00, 0x80, 0xc3, 0x0f, 0x00, 0x00, 0x00,
   0x01, 0x0f, 0x00, 0x00, 0x00, 0x03, 0x0f, 0x00, 0x00, 0x00, 0x00, 0x05,
   0x00, 0x00, 0x00, 0x00, 0x05, 0x00, 0x00, 0x20, 0x04, 0x04, 0x00, 0x00,
   0x20, 0x06, 0x01, 0x00, 0x00, 0x80, 0x0d, 0x00, 0x00, 0x00, 0x80, 0x01,
   0x00, 0x00, 0x00, 0x00, 0x01, 0x00, 0x00, 0x00, 0x00, 0x00, 0x00, 0x00,
   0x00, 0x00, 0x00, 0x00, 0x00, 0x00, 0x00, 0x00, 0x00, 0x00, 0x00, 0x00,
   0x00, 0x00, 0x00, 0x00, 0x00, 0x00, 0x00, 0x00, 0x00, 0x00, 0x00, 0x00,
   0x00, 0x00, 0x00, 0x00, 0x00, 0x00, 0x00, 0x00, 0x00, 0x00, 0x00, 0x00,
   0x00, 0x00, 0x00, 0x00, 0x00, 0x00, 0x00, 0x00, 0x00, 0x00, 0x00, 0x00,
   0x00, 0x00, 0x00, 0x00, 0x00, 0x00, 0x00 };
