#define 08_width 35
#define 08_height 35
static unsigned char 08_bits[] = {
   0x00, 0x00, 0x00, 0x00, 0x00, 0x00, 0x00, 0x00, 0x00, 0x00, 0x00, 0x00,
   0x00, 0x00, 0x00, 0x00, 0x04, 0x00, 0x00, 0x00, 0x00, 0x02, 0x00, 0x00,
   0x00, 0x00, 0x05, 0x00, 0x00, 0x00, 0x80, 0x00, 0x00, 0x00, 0x00, 0x80,
   0x03, 0x00, 0x00, 0x00, 0x40, 0x00, 0x00, 0x00, 0x00, 0x60, 0x09, 0x00,
   0x00, 0x00, 0xc0, 0x40, 0x00, 0x00, 0x00, 0x60, 0xc2, 0x02, 0x00, 0x00,
   0xa0, 0x00, 0x00, 0x00, 0x00, 0x20, 0x84, 0x02, 0x00, 0x00, 0x70, 0x00,
   0x04, 0x00, 0x00, 0x50, 0x01, 0x00, 0x00, 0x00, 0x20, 0x00, 0x00, 0x02,
   0x00, 0x50, 0x00, 0x00, 0x02, 0x00, 0x20, 0x00, 0x00, 0x02, 0x00, 0x40,
   0x00, 0x00, 0x03, 0x00, 0x20, 0x00, 0x00, 0x03, 0x00, 0x00, 0x00, 0x18,
   0x03, 0x00, 0x00, 0x00, 0x00, 0x03, 0x00, 0x00, 0x00, 0x02, 0x01, 0x00,
   0x00, 0x00, 0x80, 0x00, 0x00, 0x00, 0x00, 0x80, 0x00, 0x00, 0x00, 0x00,
   0x00, 0x00, 0x00, 0x00, 0x00, 0x00, 0x00, 0x00, 0x00, 0x00, 0x00, 0x00,
   0x00, 0x00, 0x00, 0x04, 0x00, 0x00, 0x00, 0x00, 0x00, 0x00, 0x00, 0x00,
   0x00, 0x00, 0x00, 0x00, 0x00, 0x00, 0x00, 0x00, 0x00, 0x00, 0x00, 0x00,
   0x00, 0x00, 0x00, 0x00, 0x00, 0x00, 0x00 };
