#define 09_width 35
#define 09_height 35
static unsigned char 09_bits[] = {
   0x00, 0x00, 0x00, 0x00, 0x00, 0x00, 0xa0, 0x02, 0x00, 0x00, 0x00, 0xf8,
   0x0f, 0x00, 0x00, 0x00, 0xfe, 0x3f, 0x00, 0x00, 0x80, 0x3f, 0xa0, 0x00,
   0x00, 0xc0, 0x47, 0x01, 0x00, 0x00, 0xe0, 0xfb, 0x0f, 0x01, 0x00, 0xf0,
   0xf9, 0x3b, 0x00, 0x00, 0xf0, 0xfe, 0x96, 0x00, 0x00, 0x78, 0xff, 0x2a,
   0x00, 0x00, 0x78, 0xbf, 0x45, 0x01, 0x00, 0xbc, 0x5f, 0x2d, 0x01, 0x00,
   0xbc, 0xff, 0x49, 0x04, 0x00, 0xdc, 0x5f, 0x95, 0x00, 0x00, 0xdc, 0x5f,
   0x55, 0x00, 0x00, 0xde, 0xbf, 0x92, 0x02, 0x00, 0xdc, 0x57, 0x2a, 0x00,
   0x00, 0xdc, 0xbf, 0x40, 0x01, 0x00, 0xdc, 0xaa, 0x2a, 0x00, 0x00, 0xd4,
   0xab, 0x04, 0x00, 0x00, 0x9c, 0x56, 0x29, 0x10, 0x00, 0x90, 0x14, 0x41,
   0x00, 0x00, 0x98, 0x52, 0x14, 0x00, 0x00, 0x30, 0x05, 0x15, 0x08, 0x00,
   0x40, 0x28, 0x00, 0x02, 0x00, 0x40, 0x82, 0x00, 0x04, 0x00, 0x00, 0x28,
   0x08, 0x02, 0x00, 0x40, 0x89, 0x00, 0x00, 0x00, 0x00, 0x20, 0x40, 0x00,
   0x00, 0x00, 0x02, 0x00, 0x00, 0x00, 0x00, 0x40, 0x02, 0x00, 0x00, 0x00,
   0x00, 0x00, 0x00, 0x00, 0x00, 0x00, 0x00, 0x00, 0x00, 0x00, 0x00, 0x00,
   0x00, 0x00, 0x00, 0x00, 0x00, 0x00, 0x00 };
