#define 05_width 35
#define 05_height 35
static unsigned char 05_bits[] = {
   0x00, 0x00, 0x07, 0x00, 0x00, 0x00, 0x80, 0x0f, 0x00, 0x00, 0x00, 0x80,
   0x0f, 0x00, 0x00, 0x00, 0xc0, 0x1f, 0x00, 0x00, 0x00, 0xc0, 0x1f, 0x00,
   0x00, 0x00, 0xe0, 0x38, 0x00, 0x00, 0x00, 0xe0, 0x38, 0x00, 0x00, 0x00,
   0x60, 0x30, 0x00, 0x00, 0x00, 0x60, 0x30, 0x00, 0x00, 0x00, 0x30, 0x60,
   0x00, 0x00, 0x00, 0x30, 0x62, 0x00, 0x00, 0x00, 0x30, 0x62, 0x00, 0x00,
   0x00, 0x30, 0x62, 0x00, 0x00, 0x00, 0x30, 0x62, 0x00, 0x00, 0x00, 0x10,
   0x42, 0x00, 0x00, 0x00, 0x10, 0x42, 0x00, 0x00, 0x00, 0x90, 0x4f, 0x00,
   0x00, 0x00, 0x90, 0x4f, 0x00, 0x00, 0x00, 0x90, 0x4f, 0x00, 0x00, 0x00,
   0x10, 0x42, 0x00, 0x00, 0x00, 0x10, 0x42, 0x00, 0x00, 0x00, 0x30, 0x62,
   0x00, 0x00, 0x00, 0x30, 0x62, 0x00, 0x00, 0x00, 0x30, 0x62, 0x00, 0x00,
   0x00, 0x30, 0x62, 0x00, 0x00, 0x00, 0x30, 0x60, 0x00, 0x00, 0x00, 0x60,
   0x30, 0x00, 0x00, 0x00, 0x60, 0x30, 0x00, 0x00, 0x00, 0xe0, 0x38, 0x00,
   0x00, 0x00, 0xe0, 0x38, 0x00, 0x00, 0x00, 0xc0, 0x1f, 0x00, 0x00, 0x00,
   0xc0, 0x1f, 0x00, 0x00, 0x00, 0x80, 0x0f, 0x00, 0x00, 0x00, 0x80, 0x0f,
   0x00, 0x00, 0x00, 0x00, 0x07, 0x00, 0x00 };
