#define 06_width 35
#define 06_height 35
static unsigned char 06_bits[] = {
   0x00, 0x00, 0x03, 0x00, 0x00, 0x00, 0x00, 0x03, 0x00, 0x00, 0x00, 0x00,
   0x07, 0x00, 0x00, 0x00, 0x80, 0x07, 0x00, 0x00, 0x00, 0x80, 0x07, 0x00,
   0x00, 0x00, 0x80, 0x0c, 0x00, 0x00, 0x00, 0x80, 0x0c, 0x00, 0x00, 0x00,
   0xc0, 0x08, 0x00, 0x00, 0x00, 0xc0, 0x08, 0x00, 0x00, 0x00, 0x40, 0x08,
   0x00, 0x00, 0x00, 0x40, 0x08, 0x00, 0x00, 0x00, 0x40, 0x08, 0x00, 0x00,
   0x00, 0x40, 0x08, 0x00, 0x00, 0x00, 0x40, 0x08, 0x00, 0x00, 0x00, 0x40,
   0x00, 0x00, 0x00, 0x00, 0x40, 0x00, 0x00, 0x00, 0x00, 0x40, 0x07, 0x00,
   0x00, 0x00, 0x40, 0x07, 0x00, 0x00, 0x00, 0x40, 0x07, 0x00, 0x00, 0x00,
   0x40, 0x00, 0x00, 0x00, 0x00, 0x40, 0x00, 0x00, 0x00, 0x00, 0x40, 0x08,
   0x00, 0x00, 0x00, 0x40, 0x08, 0x00, 0x00, 0x00, 0x40, 0x08, 0x00, 0x00,
   0x00, 0x40, 0x08, 0x00, 0x00, 0x00, 0x40, 0x08, 0x00, 0x00, 0x00, 0xc0,
   0x08, 0x00, 0x00, 0x00, 0xc0, 0x08, 0x00, 0x00, 0x00, 0x80, 0x0c, 0x00,
   0x00, 0x00, 0x80, 0x0c, 0x00, 0x00, 0x00, 0x80, 0x07, 0x00, 0x00, 0x00,
   0x80, 0x07, 0x00, 0x00, 0x00, 0x00, 0x07, 0x00, 0x00, 0x00, 0x00, 0x03,
   0x00, 0x00, 0x00, 0x00, 0x03, 0x00, 0x00 };
