#define 07_width 35
#define 07_height 35
static unsigned char 07_bits[] = {
   0x00, 0x00, 0x06, 0x00, 0x00, 0x00, 0x00, 0x06, 0x00, 0x00, 0x00, 0x00,
   0x07, 0x00, 0x00, 0x00, 0x00, 0x0f, 0x00, 0x00, 0x00, 0x00, 0x0f, 0x00,
   0x00, 0x00, 0x80, 0x09, 0x00, 0x00, 0x00, 0x80, 0x09, 0x00, 0x00, 0x00,
   0x80, 0x18, 0x00, 0x00, 0x00, 0x80, 0x18, 0x00, 0x00, 0x00, 0x80, 0x10,
   0x00, 0x00, 0x00, 0x80, 0x10, 0x00, 0x00, 0x00, 0x80, 0x10, 0x00, 0x00,
   0x00, 0x80, 0x10, 0x00, 0x00, 0x00, 0x80, 0x10, 0x00, 0x00, 0x00, 0x00,
   0x10, 0x00, 0x00, 0x00, 0x00, 0x10, 0x00, 0x00, 0x00, 0x00, 0x17, 0x00,
   0x00, 0x00, 0x00, 0x17, 0x00, 0x00, 0x00, 0x00, 0x17, 0x00, 0x00, 0x00,
   0x00, 0x10, 0x00, 0x00, 0x00, 0x00, 0x10, 0x00, 0x00, 0x00, 0x80, 0x10,
   0x00, 0x00, 0x00, 0x80, 0x10, 0x00, 0x00, 0x00, 0x80, 0x10, 0x00, 0x00,
   0x00, 0x80, 0x10, 0x00, 0x00, 0x00, 0x80, 0x10, 0x00, 0x00, 0x00, 0x80,
   0x18, 0x00, 0x00, 0x00, 0x80, 0x18, 0x00, 0x00, 0x00, 0x80, 0x09, 0x00,
   0x00, 0x00, 0x80, 0x09, 0x00, 0x00, 0x00, 0x00, 0x0f, 0x00, 0x00, 0x00,
   0x00, 0x0f, 0x00, 0x00, 0x00, 0x00, 0x07, 0x00, 0x00, 0x00, 0x00, 0x06,
   0x00, 0x00, 0x00, 0x00, 0x06, 0x00, 0x00 };
