#define 09_width 35
#define 09_height 35
static unsigned char 09_bits[] = {
   0x00, 0x00, 0x07, 0x00, 0x00, 0x00, 0xc0, 0x1f, 0x00, 0x00, 0x00, 0xe0,
   0x3f, 0x00, 0x00, 0x00, 0xf0, 0x7f, 0x00, 0x00, 0x00, 0xf0, 0x7f, 0x00,
   0x00, 0x00, 0xf8, 0xf8, 0x00, 0x00, 0x00, 0x78, 0xf0, 0x00, 0x00, 0x00,
   0x3c, 0xe0, 0x01, 0x00, 0x00, 0x1c, 0xc0, 0x01, 0x00, 0x00, 0x1c, 0xc0,
   0x01, 0x00, 0x00, 0x0c, 0x82, 0x01, 0x00, 0x00, 0x0e, 0x82, 0x03, 0x00,
   0x00, 0x0e, 0x82, 0x03, 0x00, 0x00, 0x0e, 0x82, 0x03, 0x00, 0x00, 0x06,
   0x02, 0x03, 0x00, 0x00, 0x06, 0x02, 0x03, 0x00, 0x00, 0xc6, 0x1f, 0x03,
   0x00, 0x00, 0xc6, 0x1f, 0x03, 0x00, 0x00, 0xc6, 0x1f, 0x03, 0x00, 0x00,
   0x06, 0x02, 0x03, 0x00, 0x00, 0x06, 0x02, 0x03, 0x00, 0x00, 0x0e, 0x82,
   0x03, 0x00, 0x00, 0x0e, 0x82, 0x03, 0x00, 0x00, 0x0e, 0x82, 0x03, 0x00,
   0x00, 0x0c, 0x82, 0x01, 0x00, 0x00, 0x1c, 0xc0, 0x01, 0x00, 0x00, 0x1c,
   0xc0, 0x01, 0x00, 0x00, 0x3c, 0xe0, 0x01, 0x00, 0x00, 0x78, 0xf0, 0x00,
   0x00, 0x00, 0xf8, 0xf8, 0x00, 0x00, 0x00, 0xf0, 0x7f, 0x00, 0x00, 0x00,
   0xf0, 0x7f, 0x00, 0x00, 0x00, 0xe0, 0x3f, 0x00, 0x00, 0x00, 0xc0, 0x1f,
   0x00, 0x00, 0x00, 0x00, 0x07, 0x00, 0x00 };
